<?xml version="1.0" standalone="no"?><!DOCTYPE svg PUBLIC "-//W3C//DTD SVG 1.1//EN" "http://www.w3.org/Graphics/SVG/1.1/DTD/svg11.dtd"><svg t="1552967303312" class="icon" style="" viewBox="0 0 1024 1024" version="1.1" xmlns="http://www.w3.org/2000/svg" p-id="2959" xmlns:xlink="http://www.w3.org/1999/xlink" width="200" height="200"><defs><style type="text/css"></style></defs><path d="M777.035294 668.611765s18.070588 138.541176 30.117647 240.941176c6.023529 48.188235-30.117647 72.282353-72.282353 54.211765-78.305882-36.141176-192.752941-96.376471-216.847059-108.42353-24.094118 12.047059-144.564706 72.282353-222.870588 108.42353-42.164706 18.070588-78.305882 0-72.282353-54.211765 12.047059-96.376471 30.117647-234.917647 30.117647-234.917647s-114.447059-126.494118-180.705882-204.8c-24.094118-30.117647-6.023529-66.258824 36.141176-78.305882 90.352941-18.070588 234.917647-42.164706 234.917647-42.164706s78.305882-144.564706 126.494118-234.917647c30.117647-54.211765 48.188235-48.188235 48.188235-48.188235 6.023529 0 24.094118 12.047059 36.141177 48.188235 48.188235 90.352941 126.494118 234.917647 126.494118 234.917647s138.541176 30.117647 234.917647 48.188235c42.164706 6.023529 60.235294 48.188235 36.141176 78.305883-60.235294 60.235294-174.682353 192.752941-174.682353 192.752941z" fill="red" p-id="2960"></path></svg>